<?xml version='1.0' encoding='utf-8'?>
<!DOCTYPE svg PUBLIC '-//W3C//DTD SVG 1.1//EN' 'http://www.w3.org/Graphics/SVG/1.1/DTD/svg11.dtd'>
<svg version="1.1" fill="#ffffff" xmlns="http://www.w3.org/2000/svg" viewBox="0 0 512 512" xmlns:xlink="http://www.w3.org/1999/xlink" enable-background="new 0 0 512 512">
  <g>
    <g>
      <path d="m239.2,261.5c0,0 0.1,0 0.1,0l32.7-.2 .2,35.9c0.1,11.2 9.2,20.3 20.4,20.3 0,0 0.1,0 0.1,0 11.3-0.1 20.4-9.3 20.3-20.5l-.2-35.9 32.7-.2c11.3-0.1 20.4-9.3 20.3-20.5-0.1-11.2-9.2-20.3-20.4-20.3 0,0-0.1,0-0.1,0l-32.7,.2-.2-35.9c-0.1-11.2-9.2-20.3-20.4-20.3 0,0-0.1,0-0.1,0-11.3,0.1-20.4,9.3-20.3,20.5l.2,35.9-32.7,.2c-11.3,0.1-20.4,9.3-20.3,20.5 0,11.2 9.1,20.3 20.4,20.3z"/>
      <path d="m480.6,75.2h-213.5v-23.1c0-11.3-9.1-20.4-20.4-20.4-11.3,0-20.4,9.1-20.4,20.4v23.1h-37.5c-7.6,0-14.5,4.2-18,10.9l-58.3,109.9-58.1,25.3c-26,11.3-43.4,41.5-43.4,75.3v41.7c0,42.1 26.9,76.7 60.9,79.7 9,35.8 41.5,62.3 80,62.3 38.4,0 70.8-26.4 79.9-62.1h61.7c9.1,35.6 41.5,62.1 79.9,62.1 38.4,0 70.8-26.4 79.9-62.1h27.2c11.3,0 20.4-9.1 20.4-20.4v-302.2c0.1-11.2-9-20.4-20.3-20.4zm-328.7,366.4c-22.7,0-41.2-19.7-41.2-43.8 0-24.2 18.5-43.8 41.2-43.8 22.7,0 41.2,19.7 41.2,43.8-2.84217e-14,24.2-18.5,43.8-41.2,43.8zm221.6,0c-22.7,0-41.2-19.7-41.2-43.8 0-24.2 18.5-43.8 41.2-43.8 22.7,0 41.2,19.7 41.2,43.8 0,24.2-18.5,43.8-41.2,43.8zm86.7-64.2h-6.8c-9.1-35.6-41.5-62.1-79.9-62.1-38.4,0-70.8,26.4-79.9,62.1h-61.7c-9.1-35.6-41.5-62.1-79.9-62.1-38.2,0-70.4,26.1-79.7,61.3-10.3-3.5-20.3-18.2-20.3-38.3v-41.7c0-17.2 7.9-33.1 18.8-37.8l64.7-28.1c4.2-1.8 7.7-5.1 9.9-9.2l55.6-105.4h259.1v261.3z"/>
    </g>
  </g>
</svg>
