<?xml version="1.0" encoding="iso-8859-1"?>
<!-- Generator: Adobe Illustrator 19.0.0, SVG Export Plug-In . SVG Version: 6.00 Build 0)  -->
<svg version="1.1" id="Capa_1" xmlns="http://www.w3.org/2000/svg" xmlns:xlink="http://www.w3.org/1999/xlink" x="0px" y="0px"
	 viewBox="0 0 489.8 489.8" fill="#ffffff" style="enable-background:new 0 0 489.8 489.8;" xml:space="preserve">
<g>
	<g>
		<g>
			<path d="M0,328.25V80.55c0-19.5,15.8-35.3,35.3-35.3h366.5c19.5,0,35.3,15.8,35.3,35.3v76.9h-48.2v-64.1H48.1v221.6h260v48.5H258
				v39.4h28c4.7,0,8.5,3.8,8.5,8.5v24.5c0,4.7-3.8,8.5-8.5,8.5H150.9c-4.7,0-8.5-3.8-8.5-8.5v-24.5c0-4.7,3.8-8.5,8.5-8.5h28v-39.4
				H35.3C15.8,363.55,0,347.75,0,328.25z M489.8,410.75v-10.1v-7.3v-166.8v-8.4c0-15.7-12.4-28.6-27.6-28.6h-94.4
				c-15.2,0-27.6,12.9-27.6,28.6v8.4v184.3v5.1c0,15.7,12.4,28.6,27.6,28.6h94.4c15.2,0,27.6-12.9,27.6-28.6V410.75z M285.1,146.55
				l-38.6-26c-2.1-1.4-4.9,0.1-4.9,2.6v14.1h-77.1c-6.6,0-11.9,5.3-11.9,11.9v63.4h23.9v-51.5h65.1v14.1c0,2.5,2.8,4.1,4.9,2.6
				l38.6-26C287,150.55,287,147.75,285.1,146.55z M190.5,225.95l-38.6,26c-1.9,1.3-1.9,4,0,5.3l38.6,26c2.1,1.4,4.9-0.1,4.9-2.6
				v-14.1h77.1c6.6,0,11.9-5.3,11.9-11.9v-63.4h-23.9v51.5h-65.1v-14.1C195.4,226.05,192.6,224.55,190.5,225.95z"/>
		</g>
	</g>
</g>
<g>
</g>
<g>
</g>
<g>
</g>
<g>
</g>
<g>
</g>
<g>
</g>
<g>
</g>
<g>
</g>
<g>
</g>
<g>
</g>
<g>
</g>
<g>
</g>
<g>
</g>
<g>
</g>
<g>
</g>
</svg>
