<svg xmlns="http://www.w3.org/2000/svg" xmlns:xlink="http://www.w3.org/1999/xlink" id="Layer_1" x="0" y="0" fill="#28926C" version="1.1" viewBox="0 0 512 512" xml:space="preserve" style="enable-background:new 0 0 512 512"><g><g><path d="M372.87,0H139.13c-27.618,0-50.087,22.469-50.087,50.087v411.826c0,27.618,22.469,50.087,50.087,50.087H372.87 c27.618,0,50.087-22.469,50.087-50.087V50.087C422.957,22.469,400.487,0,372.87,0z M389.565,461.913 c0,9.206-7.49,16.696-16.696,16.696H139.13c-9.206,0-16.696-7.49-16.696-16.696v-27.826h267.13V461.913z M389.565,400.696h-267.13 V100.174h267.13V400.696z M389.565,66.783h-267.13V50.087c0-9.206,7.49-16.696,16.696-16.696H372.87 c9.206,0,16.696,7.49,16.696,16.696V66.783z"/></g></g><g><g><path d="M256,133.565c-61.165,0-101.707,64.049-75.415,119.307c0.186,0.392,0.387,0.775,0.603,1.151l60.339,104.909 c6.428,11.174,22.555,11.153,28.959-0.023c65.559-114.42,61.516-107.267,62.049-108.492 C356.537,195.438,316.04,133.565,256,133.565z M302.263,236.282l-46.29,80.791l-45.492-79.095 c-15.196-32.944,8.96-71.022,45.52-71.022C291.626,166.957,315.98,203.37,302.263,236.282z"/></g></g><g><g><circle cx="256" cy="217.043" r="16.696"/></g></g></svg>