<svg xmlns="http://www.w3.org/2000/svg" xmlns:xlink="http://www.w3.org/1999/xlink" id="Layer_1" x="0" y="0" fill="#fff" version="1.1" viewBox="0 0 512.001 512.001" xml:space="preserve" style="enable-background:new 0 0 512.001 512.001"><g><g><path d="M379.025,390.594c7.33-5.323,14.299-11.253,20.829-17.783l11.772-11.772l-70.638-70.638l-11.773,11.773 c-13.626,13.627-31.745,21.132-51.017,21.132c-19.271,0-37.39-7.504-51.018-21.13c-28.127-28.127-28.129-73.891-0.01-102.022 c0.003-0.004,0.008-0.008,0.011-0.011c4.074-4.074,7.352-8.73,9.77-13.777l56.944,56.945l19.622-19.622l18.948,18.948 l47.093-47.094l-18.948-18.948l19.621-19.62L223.259,0l-27.47,27.47L176.84,8.521l-31.394,31.396l18.947,18.948l-27.47,27.47 l33.399,33.399c-5.048,2.416-9.703,5.695-13.777,9.769c-0.016,0.016-0.028,0.03-0.043,0.046 c-32.468,32.49-50.348,75.676-50.348,121.611c0,45.954,17.896,89.158,50.392,121.654c6.247,6.246,12.892,11.948,19.873,17.091 h-31.416c-58.145,0.001-105.447,47.305-105.446,105.447v16.65h416.238L472.445,512v-16.651 C472.443,441.274,431.524,396.583,379.025,390.594z M223.26,47.092L333.14,156.974l-39.243,39.243l-66.682-66.683 c-0.011-0.01-0.02-0.022-0.03-0.031c-0.011-0.01-0.022-0.021-0.031-0.03l-43.138-43.138L223.26,47.092z M180.092,153.05 c3.145-3.146,7.326-4.878,11.773-4.878c4.447,0,8.627,1.733,11.772,4.879c3.145,3.143,4.877,7.325,4.877,11.771 c0,4.448-1.733,8.628-4.878,11.772c-3.143,3.145-7.325,4.877-11.771,4.877c-4.448,0-8.629-1.733-11.775-4.878 c-3.145-3.143-4.876-7.325-4.876-11.771C175.215,160.374,176.946,156.194,180.092,153.05z M139.452,251.158 c0-19.917,4.176-39.194,12.1-56.834c1.503,2.043,3.166,3.99,4.993,5.816c6.523,6.524,14.535,11.018,23.268,13.171 c-14.437,37.698-6.516,82.069,23.823,112.408c19.916,19.916,46.397,30.884,74.563,30.884c22.537,0,43.993-7.022,61.871-20.031 l23.769,23.769c-24.334,19.166-54.188,29.561-85.641,29.561c-37.061,0.001-71.903-14.43-98.108-40.636 C153.885,323.061,139.452,288.219,139.452,251.158z M74.794,478.701c7.534-31.783,36.154-55.497,70.209-55.499h221.995 c34.053,0,62.671,23.715,70.208,55.499H74.794z"/></g></g></svg>